<svg xmlns="http://www.w3.org/2000/svg" width="160.11" height="45.143" viewBox="0 0 160.11 45.143">
    <defs>
        <style>
            .cls-1{fill:#1a1818}.cls-2{fill:#040505}.cls-3{fill:#145662}.cls-4{fill:#fff}
        </style>
    </defs>
    <g id="logo-gofleet-new" transform="translate(-975 1726)">
        <g id="Group_715" data-name="Group 715" transform="translate(975 -1726)">
            <g id="Group_712" data-name="Group 712" transform="translate(39.004 37.719)">
                <path id="Path_17499" d="M280.672 443.084h2.828a1.447 1.447 0 0 1 1.594 1.423 1.171 1.171 0 0 1-.606 1.088v.016a1.308 1.308 0 0 1 .808 1.283c0 1.08-.676 1.632-1.959 1.632h-2.666zm2.659 2.262c.614 0 .925-.256.925-.769 0-.49-.326-.738-.925-.738h-1.819v1.507zm-.031 2.425c.808 0 1.158-.264 1.158-.878 0-.591-.342-.855-1.143-.855h-1.8v1.733z" class="cls-1" data-name="Path 17499" transform="translate(-280.672 -442.851)"/>
                <path id="Path_17500" d="M297.151 449.087l-1.9-3.8h.91l1.422 2.962h.016l1.407-2.962h.909l-2.907 5.869h-.9z" class="cls-1" data-name="Path 17500" transform="translate(-286.504 -443.731)"/>
                <path id="Path_17501" d="M320.638 447.012l-.544 1.648h-.7l1.78-5.239h.816l1.788 5.239h-.723l-.56-1.648zm1.718-.529l-.513-1.508c-.116-.343-.194-.653-.272-.957h-.015c-.078.311-.163.63-.265.949l-.513 1.516z" class="cls-1" data-name="Path 17501" transform="translate(-296.158 -442.985)"/>
                <path id="Path_17502" d="M332.58 447.779a2.4 2.4 0 0 0 1.213.343c.692 0 1.1-.366 1.1-.895 0-.49-.28-.769-.988-1.042-.854-.3-1.383-.746-1.383-1.485a1.509 1.509 0 0 1 1.695-1.423 2.373 2.373 0 0 1 1.158.257l-.187.552a2.082 2.082 0 0 0-.995-.249c-.715 0-.987.428-.987.785 0 .49.319.731 1.042 1.011.886.341 1.337.769 1.337 1.539 0 .809-.6 1.509-1.834 1.509a2.707 2.707 0 0 1-1.338-.334z" class="cls-1" data-name="Path 17502" transform="translate(-301.364 -442.928)"/>
                <path id="Path_17503" d="M344.7 444h-1.593v-.575h3.879V444h-1.6v4.664h-.686z" class="cls-1" data-name="Path 17503" transform="translate(-305.642 -442.985)"/>
                <path id="Path_17504" d="M355.41 443.465a7.077 7.077 0 0 1 1.3-.109 2.142 2.142 0 0 1 1.515.427 1.305 1.305 0 0 1 .412 1 1.375 1.375 0 0 1-.987 1.337v.023a1.306 1.306 0 0 1 .769 1.057 8.341 8.341 0 0 0 .4 1.438h-.7a6.791 6.791 0 0 1-.35-1.252c-.155-.723-.435-.995-1.049-1.018h-.637v2.27h-.676zm.676 2.387h.692c.723 0 1.182-.4 1.182-1 0-.676-.49-.971-1.2-.979a2.74 2.74 0 0 0-.668.062z" class="cls-1" data-name="Path 17504" transform="translate(-310.563 -442.959)"/>
                <path id="Path_17505" d="M367.894 447.012l-.544 1.648h-.7l1.78-5.239h.816l1.788 5.239h-.723l-.559-1.648zm1.718-.529l-.513-1.508c-.116-.343-.194-.653-.272-.957h-.016c-.077.311-.163.63-.264.949l-.512 1.516z" class="cls-1" data-name="Path 17505" transform="translate(-315.058 -442.985)"/>
                <path id="Path_17506" d="M394.419 448.222l-.622-.474a2.479 2.479 0 0 1-2.052.817c-1.361 0-2.185-.614-2.185-1.609a1.793 1.793 0 0 1 1.112-1.578 1.469 1.469 0 0 1-.629-1.182c0-.754.7-1.306 1.671-1.306a1.64 1.64 0 0 1 1.8 1.36l-.785.124a.9.9 0 0 0-1.01-.778c-.529 0-.871.241-.871.615 0 .28.148.5.606.839l1.851 1.392v-1.12h.738V447l.824.622zm-3.156-2.394c-.6.3-.9.661-.9 1.089 0 .559.544.925 1.384.925a1.687 1.687 0 0 0 1.43-.56z" class="cls-1" data-name="Path 17506" transform="translate(-324.22 -442.773)"/>
                <path id="Path_17507" d="M417.664 442.89a2.462 2.462 0 0 1 2.527 1.873l-.809.194a1.683 1.683 0 0 0-1.718-1.314 2.091 2.091 0 0 0 0 4.167 1.535 1.535 0 0 0 1.736-1.41h-1.65v-.7h2.479v.544a2.306 2.306 0 0 1-2.565 2.317 2.838 2.838 0 0 1 0-5.675z" class="cls-1" data-name="Path 17507" transform="translate(-334.357 -442.773)"/>
                <path id="Path_17508" d="M433.341 445.092a2.178 2.178 0 1 1-2.262 2.177 2.163 2.163 0 0 1 2.262-2.177zm0 .707a1.47 1.47 0 1 0 1.469 1.47 1.4 1.4 0 0 0-1.469-1.469z" class="cls-1" data-name="Path 17508" transform="translate(-340.825 -443.653)"/>
                <path id="Path_17509" d="M444.586 449.085h.583c.319 0 .443-.117.443-.42v-4.415h.8v4.45c0 .739-.4 1.1-1.19 1.1h-.637zm.987-6.39h.878v.84h-.878z" class="cls-1" data-name="Path 17509" transform="translate(-346.227 -442.695)"/>
                <path id="Path_17510" d="M457.393 445.092a2.116 2.116 0 0 1 2.176 2.177v.272h-3.576a1.129 1.129 0 0 0 .421.886 1.526 1.526 0 0 0 1.01.343 1.673 1.673 0 0 0 1.423-.785l.575.451a2.261 2.261 0 0 1-2 1.011 2.068 2.068 0 0 1-2.231-2.161 2.1 2.1 0 0 1 2.202-2.194zm1.376 1.834a1.325 1.325 0 0 0-1.368-1.158 1.31 1.31 0 0 0-1.391 1.158z" class="cls-1" data-name="Path 17510" transform="translate(-350.469 -443.654)"/>
                <path id="Path_17511" d="M470.048 442.7h.8v3.4h.015l2.145-1.85h1.182l-1.966 1.671 2.052 2.449h-1.019l-1.6-1.951h-.015l-.793.685v1.267h-.8z" class="cls-1" data-name="Path 17511" transform="translate(-356.411 -442.695)"/>
            </g>
            <g id="Group_713" data-name="Group 713" transform="translate(38.994)">
                <path id="Path_17512" d="M285.1 408.873a6.688 6.688 0 0 0 5.812 2.841c2.71 0 4.7-1.731 4.7-4.082v-1.24h-.065a7.382 7.382 0 0 1-5.583 2.089 9.046 9.046 0 1 1-.163-18.088 7.777 7.777 0 0 1 5.746 2.024h.065v-1.7h4.637v16.849c0 4.9-3.885 8.293-9.338 8.293-3.951 0-7.216-1.4-9.273-4.114zm10.318-10.481c0-1.959-2.22-3.755-4.7-3.755-3.135 0-5.224 1.894-5.224 4.734 0 3.036 1.926 4.865 5.029 4.865 2.71 0 4.9-1.7 4.9-3.82z" class="cls-2" data-name="Path 17512" transform="translate(-280.656 -384.058)"/>
                <path id="Path_17513" d="M327.044 390.119c5.648 0 9.763 4.016 9.763 9.143s-4.115 9.143-9.763 9.143c-5.518.1-9.861-4.082-9.762-9.143-.099-5.062 4.244-9.241 9.762-9.143zm0 4.245a4.9 4.9 0 1 0 4.93 4.9 4.688 4.688 0 0 0-4.93-4.9z" class="cls-2" data-name="Path 17513" transform="translate(-295.303 -383.948)"/>
                <path id="Path_17514" d="M354.843 390.611H350.7V386.5h4.146v-1.763c0-3.037 2.122-4.9 5.681-4.9h4.538v4.147h-3.951c-.947 0-1.437.457-1.437 1.338v1.178h6.465v4.115h-6.465V403.8h-4.832z" class="cls-2" data-name="Path 17514" transform="translate(-308.668 -379.836)"/>
                <path id="Path_17515" d="M379.375 380.054h4.832v23.835h-4.832z" class="cls-2" data-name="Path 17515" transform="translate(-320.138 -379.923)"/>
                <path id="Path_17516" d="M401.132 390.12a8.956 8.956 0 0 1 9.4 9.306v1.374h-14.04c.163 2.253 2.024 3.69 4.9 3.69 2.09 0 3.592-.784 5.323-2.579l3 3a10.587 10.587 0 0 1-8.293 3.494c-6.04 0-9.7-3.624-9.7-9.11.006-5.322 3.957-9.175 9.41-9.175zm4.7 7.282c-.229-2.058-2.024-3.363-4.6-3.363-2.613 0-4.408 1.306-4.669 3.363z" class="cls-2" data-name="Path 17516" transform="translate(-325.078 -383.949)"/>
                <path id="Path_17517" d="M435.632 390.12a8.956 8.956 0 0 1 9.4 9.306v1.374H431c.163 2.253 2.024 3.69 4.9 3.69 2.089 0 3.591-.784 5.322-2.579l3 3a10.586 10.586 0 0 1-8.293 3.494c-6.041 0-9.7-3.624-9.7-9.11 0-5.322 3.95-9.175 9.403-9.175zm4.7 7.282c-.228-2.058-2.024-3.363-4.6-3.363-2.611 0-4.407 1.306-4.669 3.363z" class="cls-2" data-name="Path 17517" transform="translate(-338.876 -383.949)"/>
                <path id="Path_17518" d="M467.249 392.156v7.314c0 1.077.359 1.4 1.764 1.4h3.167v4.473h-3.657c-4.343 0-6.106-1.7-6.106-5.583v-7.608h-4.081v-4.115h4.081V383.7h4.832v4.343h5.584v4.115z" class="cls-2" data-name="Path 17518" transform="translate(-351.717 -381.381)"/>
            </g>
            <circle id="Ellipse_67" cx="15.542" cy="15.542" r="15.542" class="cls-3" data-name="Ellipse 67" transform="translate(0 .923)"/>
            <g id="Group_714" data-name="Group 714" transform="translate(4.274 7.917)">
                <path id="Path_17519" d="M226.728 399.406a1.857 1.857 0 0 0 .057 1.076 4.123 4.123 0 0 0-.556 1.657 19.856 19.856 0 0 0 .164 4.765 3.037 3.037 0 0 0 .857 1.65v.757a.687.687 0 0 1-.694.685h-1.544a.71.71 0 0 1-.686-.518l-.441-1.705a1.548 1.548 0 0 1-.866-1.108 17.876 17.876 0 0 1-.155-4.374 2.933 2.933 0 0 1 1.413-2.1h-.6a.345.345 0 0 1-.351-.43l.2-.853a.722.722 0 0 1 .71-.557h.972l.539-1.953a3.6 3.6 0 0 1 2.94-2.518c.653-.1 1.274-.16 1.887-.2a5.064 5.064 0 0 0-1.4 2.295l-.221.8a2.348 2.348 0 0 0-2.025 1.817z" class="cls-4" data-name="Path 17519" transform="translate(-222.796 -393.288)"/>
                <path id="Path_17520" d="M248.373 402.074a3.031 3.031 0 0 0-1.324-2.2h.561a.359.359 0 0 0 .343-.448l-.187-.887a.723.723 0 0 0-.693-.586h-.919l-.506-2.035a3.512 3.512 0 0 0-2.8-2.629 18.9 18.9 0 0 0-3.125-.261h-.423a19.008 19.008 0 0 0-3.14.261 3.305 3.305 0 0 0-.273.056 3.534 3.534 0 0 0-2.516 2.573l-.514 2.035h-.919a.694.694 0 0 0-.678.586l-.187.887a.345.345 0 0 0 .327.448h.577a3.133 3.133 0 0 0-1.348 2.2 20.082 20.082 0 0 0-.023 2.727c.023.61.086 1.229.172 1.848a1.426 1.426 0 0 0 .242.611 1.741 1.741 0 0 0 .584.545l.429 1.783a.68.68 0 0 0 .654.538h1.457a.7.7 0 0 0 .67-.716v-1.319c1.566.041 3.14.073 4.706.073 1.551 0 3.124-.032 4.69-.073v1.319a.7.7 0 0 0 .662.716h1.464a.679.679 0 0 0 .647-.538l.444-1.783a1.7 1.7 0 0 0 .826-1.156 21.9 21.9 0 0 0 .12-4.575zm-15.087 1.834a1.166 1.166 0 1 1 1.165-1.165 1.166 1.166 0 0 1-1.165 1.166zm9.714.954a.6.6 0 0 1-.6.6h-5.794a.6.6 0 0 1-.6-.6v-.354a.6.6 0 0 1 .6-.6h5.794a.6.6 0 0 1 .6.6zm-3.485-6.322a25.8 25.8 0 0 0-4.885.415l.686-2.45a1.634 1.634 0 0 1 1.309-1.14 19.405 19.405 0 0 1 2.688-.2h.4a19.275 19.275 0 0 1 2.673.2 1.646 1.646 0 0 1 1.317 1.14l.678 2.45a25.658 25.658 0 0 0-4.866-.414zm6.205 5.368a1.166 1.166 0 1 1 1.165-1.165 1.166 1.166 0 0 1-1.165 1.166z" class="cls-4" data-name="Path 17520" transform="translate(-225.903 -393.029)"/>
            </g>
        </g>
    </g>
</svg>
